<?xml version="1.0" encoding="UTF-8"?>
<svg version="1.1" xmlns="http://www.w3.org/2000/svg" width="50" height="50">
<path d="M0 0 C11.88 0 23.76 0 36 0 C36 15.18 36 30.36 36 46 C24.12 46 12.24 46 0 46 C0 30.82 0 15.64 0 0 Z M20 2 C20 5.96 20 9.92 20 14 C20.94875 13.814375 21.8975 13.62875 22.875 13.4375 C26 13 26 13 28 14 C28 10.04 28 6.08 28 2 C25.36 2 22.72 2 20 2 Z M8 21 C8 21.66 8 22.32 8 23 C14.6 23 21.2 23 28 23 C28 22.34 28 21.68 28 21 C21.4 21 14.8 21 8 21 Z M8 26 C8 26.66 8 27.32 8 28 C12.95 28 17.9 28 23 28 C23 27.34 23 26.68 23 26 C18.05 26 13.1 26 8 26 Z M8 31 C8 31.66 8 32.32 8 33 C14.6 33 21.2 33 28 33 C28 32.34 28 31.68 28 31 C21.4 31 14.8 31 8 31 Z M8 36 C8 36.66 8 37.32 8 38 C12.95 38 17.9 38 23 38 C23 37.34 23 36.68 23 36 C18.05 36 13.1 36 8 36 Z " fill="#FAAF04" transform="translate(7,2)"/>
</svg>
